<svg xmlns="http://www.w3.org/2000/svg" version="1.1" height="272" width="568" viewBox="0 0 568 272" class="diagram" text-anchor="middle" font-family="monospace" font-size="13px" stroke-linecap="round">
<path d="M 8,128 L 8,192" fill="none" stroke="black"/>
<path d="M 48,144 L 48,176" fill="none" stroke="black"/>
<path d="M 72,144 L 72,176" fill="none" stroke="black"/>
<path d="M 104,64 L 104,80" fill="none" stroke="black"/>
<path d="M 112,128 L 112,192" fill="none" stroke="black"/>
<path d="M 168,144 L 168,240" fill="none" stroke="black"/>
<path d="M 408,144 L 408,240" fill="none" stroke="black"/>
<path d="M 456,64 L 456,80" fill="none" stroke="black"/>
<path d="M 456,160 L 456,224" fill="none" stroke="black"/>
<path d="M 504,176 L 504,208" fill="none" stroke="black"/>
<path d="M 528,176 L 528,208" fill="none" stroke="black"/>
<path d="M 560,160 L 560,224" fill="none" stroke="black"/>
<path d="M 112,64 L 448,64" fill="none" stroke="black"/>
<path d="M 8,128 L 112,128" fill="none" stroke="black"/>
<path d="M 184,128 L 392,128" fill="none" stroke="black"/>
<path d="M 48,144 L 72,144" fill="none" stroke="black"/>
<path d="M 80,160 L 136,160" fill="none" stroke="black"/>
<path d="M 456,160 L 560,160" fill="none" stroke="black"/>
<path d="M 48,176 L 72,176" fill="none" stroke="black"/>
<path d="M 504,176 L 528,176" fill="none" stroke="black"/>
<path d="M 8,192 L 112,192" fill="none" stroke="black"/>
<path d="M 424,192 L 496,192" fill="none" stroke="black"/>
<path d="M 504,208 L 528,208" fill="none" stroke="black"/>
<path d="M 456,224 L 560,224" fill="none" stroke="black"/>
<path d="M 184,256 L 392,256" fill="none" stroke="black"/>
<path d="M 136,160 L 152,192" fill="none" stroke="black"/>
<path d="M 456,80 L 492,152" fill="none" stroke="black"/>
<path d="M 84,120 L 104,80" fill="none" stroke="black"/>
<path d="M 184,128 C 175.16936,128 168,135.16936 168,144" fill="none" stroke="black"/>
<path d="M 392,128 C 400.83064,128 408,135.16936 408,144" fill="none" stroke="black"/>
<path d="M 184,256 C 175.16936,256 168,248.83064 168,240" fill="none" stroke="black"/>
<path d="M 392,256 C 400.83064,256 408,248.83064 408,240" fill="none" stroke="black"/>
<polygon class="arrowhead" points="452,64 440,58.4 440,69.6" fill="black" transform="rotate(0,444,64)"/>
<polygon class="arrowhead" points="124,64 112,58.4 112,69.6" fill="black" transform="rotate(180,116,64)"/>
<circle cx="72" cy="160" r="6" class="dotteddot" fill="white" stroke="black" stroke-dasharray="0,1.8"/>
<circle cx="104" cy="64" r="6" class="opendot" fill="white" stroke="black"/>
<circle cx="160" cy="192" r="6" class="dotteddot" fill="white" stroke="black" stroke-dasharray="0,1.8"/>
<circle cx="416" cy="192" r="6" class="dotteddot" fill="white" stroke="black" stroke-dasharray="0,1.8"/>
<circle cx="456" cy="64" r="6" class="opendot" fill="white" stroke="black"/>
<circle cx="504" cy="192" r="6" class="dotteddot" fill="white" stroke="black" stroke-dasharray="0,1.8"/>
<g class="text">
<text x="264" y="20">Network 1 -- L2 Interface Scope with IETF Network Slice, CE-based</text>
<text x="292" y="52">(IETF Network Slice)</text>
<text x="68" y="68">(SDP1)</text>
<text x="492" y="68">(SDP2)</text>
<text x="292" y="84">slice1</text>
<text x="12" y="116">CE</text>
<text x="24" y="148">BB1</text>
<text x="548" y="148">CE</text>
<text x="280" y="196">Abstract Provider</text>
<text x="136" y="212">AC1</text>
<text x="272" y="212">Network</text>
<text x="432" y="212">AC2</text>
<text x="476" y="212">RAU5</text>
</g>
</svg>
